<svg width="688" height="294" viewBox="0 0 688 294" fill="none" xmlns="http://www.w3.org/2000/svg">
<path d="M357.186 0C276.085 0 210.346 65.7396 210.346 146.84C210.346 227.94 276.085 293.68 357.186 293.68C438.286 293.68 504.026 227.94 504.026 146.84C504.026 65.7396 438.286 0 357.186 0ZM357.186 240.244C305.599 240.244 263.793 198.427 263.793 146.851C263.793 95.2744 305.599 53.4469 357.186 53.4469C408.773 53.4469 450.579 95.2637 450.579 146.84C450.579 198.416 408.762 240.244 357.186 240.244Z" fill="url(#paint0_linear_1885:1668)"/>
<path d="M674.873 83.858C674.873 102.821 668.363 120.245 657.492 134.077C676.177 150.517 687.989 174.6 688 201.441C688 250.986 647.84 291.146 598.295 291.146H511.657V237.699H598.295C618.316 237.699 634.553 221.462 634.553 201.441C634.553 181.42 618.316 165.183 598.295 165.183H593.549H560.577V111.736H593.549C608.941 111.736 621.426 99.2507 621.426 83.858C621.426 68.4653 608.941 55.9801 593.549 55.9801H511.657V2.5332H593.549C638.465 2.5332 674.873 38.9412 674.873 83.858Z" fill="url(#paint1_linear_1885:1668)"/>
<path d="M53.4469 91.1374V55.9801H168.304V2.5332H0V102.297C0 137.08 28.1986 165.29 62.9925 165.29H99.2295C119.229 165.29 135.434 181.505 135.434 201.495C135.434 221.494 119.219 237.699 99.2295 237.699H0V291.146H99.2295C148.743 291.146 188.881 251.008 188.881 201.495C188.881 151.981 148.743 111.843 99.2295 111.843H74.1522C62.7146 111.843 53.4469 102.564 53.4469 91.1374Z" fill="url(#paint2_linear_1885:1668)"/>
<defs>
<linearGradient id="paint0_linear_1885:1668" x1="286.292" y1="74.1896" x2="533.488" y2="379.875" gradientUnits="userSpaceOnUse">
<stop stop-color="#FFDF6B"/>
<stop offset="1" stop-color="#FFDF6B" stop-opacity="0"/>
</linearGradient>
<linearGradient id="paint1_linear_1885:1668" x1="492.545" y1="70.1875" x2="653.853" y2="354.016" gradientUnits="userSpaceOnUse">
<stop stop-color="#FFDF6B"/>
<stop offset="1" stop-color="#FFDF6B" stop-opacity="0"/>
</linearGradient>
<linearGradient id="paint2_linear_1885:1668" x1="57.5662" y1="112.669" x2="273.055" y2="389.418" gradientUnits="userSpaceOnUse">
<stop stop-color="#FFDF6B"/>
<stop offset="1" stop-color="#FFDF6B" stop-opacity="0"/>
</linearGradient>
</defs>
</svg>
