<svg width="688" height="296" viewBox="0 0 688 296" fill="none" xmlns="http://www.w3.org/2000/svg">
<path d="M348.51 0C266.974 0 200.881 66.259 200.881 148C200.881 229.741 266.974 296 348.51 296C430.047 296 496.139 229.741 496.139 148C496.139 66.259 430.047 0 348.51 0ZM348.51 242.142C296.646 242.142 254.615 199.995 254.615 148.011C254.615 96.0271 296.657 53.8691 348.51 53.8691C400.375 53.8691 442.405 96.0163 442.405 148C442.405 199.984 400.375 242.142 348.51 242.142Z" fill="url(#paint0_linear_1885:1375)"/>
<path d="M114.931 4.12085V133.071H74.5418C65.6961 133.071 58.4333 126.066 58.0697 117.193L53.481 4.12085H0L3.70089 133.297C4.55658 163.077 28.837 186.776 58.4975 186.776H114.92V294.186H168.401V4.12085H114.931Z" fill="url(#paint1_linear_1885:1375)"/>
<path d="M634.043 4.12085V133.071H593.655C584.809 133.071 577.546 126.066 577.182 117.193L572.594 4.12085H519.113L522.814 133.297C523.669 163.077 547.95 186.776 577.61 186.776H634.033V294.186H687.514V4.12085H634.043Z" fill="url(#paint2_linear_1885:1375)"/>
<defs>
<linearGradient id="paint0_linear_1885:1375" x1="348.51" y1="3.14714e-06" x2="454.376" y2="349.603" gradientUnits="userSpaceOnUse">
<stop offset="0.3125" stop-color="#FFDF6B"/>
<stop offset="1" stop-color="#FFDF6B" stop-opacity="0"/>
</linearGradient>
<linearGradient id="paint1_linear_1885:1375" x1="84.2005" y1="4.12085" x2="229.323" y2="374.883" gradientUnits="userSpaceOnUse">
<stop offset="0.3125" stop-color="#FFDF6B"/>
<stop offset="1" stop-color="#FFDF6B" stop-opacity="0"/>
</linearGradient>
<linearGradient id="paint2_linear_1885:1375" x1="603.313" y1="4.12085" x2="687.753" y2="377.349" gradientUnits="userSpaceOnUse">
<stop offset="0.3125" stop-color="#FFDF6B"/>
<stop offset="1" stop-color="#FFDF6B" stop-opacity="0"/>
</linearGradient>
</defs>
</svg>
