<svg xmlns="http://www.w3.org/2000/svg" viewBox="0 0 238 23" fill="none">
  <path fill="currentColor" d="m10.48 1.145 8.305 18.37h-2.6l-2.509-5.602H5.105l-2.508 5.603H0l8.302-18.37h2.179Zm2.175 10.488L9.392 4.359l-3.267 7.274h6.53Zm10.215 7.583a6.076 6.076 0 0 1-2.194-1.57 6.68 6.68 0 0 1-1.39-2.408 9.606 9.606 0 0 1-.482-3.113v-1.38c0-2.072.055-3.317.322-4.567.236-1.108.52-1.991 1.136-2.857a6.013 6.013 0 0 1 2.187-1.888C24.455.353 27.532.19 29.167.08L31.155 0v2.236h-.3c-1.974 0-7.023.18-8.506 2.003a3.917 3.917 0 0 0-.85 1.617 11.73 11.73 0 0 0-.368 2.48 5.18 5.18 0 0 1 2.247-1.813 6.953 6.953 0 0 1 2.676-.542 7.131 7.131 0 0 1 2.81.542 5.835 5.835 0 0 1 2.086 1.461 7.02 7.02 0 0 1 1.338 2.138c.3.824.454 1.694.454 2.572a7.331 7.331 0 0 1-.501 2.76 6.73 6.73 0 0 1-1.445 2.247 6.383 6.383 0 0 1-2.22 1.522 7.426 7.426 0 0 1-5.7 0l-.006-.007Zm4.736-1.975a4.323 4.323 0 0 0 1.471-1.002c.418-.455.745-.988.963-1.57a5.19 5.19 0 0 0 .355-1.975 4.733 4.733 0 0 0-.348-1.861 4.548 4.548 0 0 0-.937-1.462 4.609 4.609 0 0 0-1.47-.947A5.092 5.092 0 0 0 25.8 8.1a4.758 4.758 0 0 0-1.9.352 4.678 4.678 0 0 0-1.471.974 4.14 4.14 0 0 0-.937 1.462 4.56 4.56 0 0 0-.348 1.813 5.19 5.19 0 0 0 .342 1.978 4.162 4.162 0 0 0 2.407 2.571 4.61 4.61 0 0 0 1.84.379c.646 0 1.285-.131 1.88-.387h-.007Zm10.622 1.975a6.279 6.279 0 0 1-2.194-1.522 6.893 6.893 0 0 1-1.444-2.22 7.25 7.25 0 0 1 1.444-7.713 7.09 7.09 0 0 1 2.194-1.522 7.324 7.324 0 0 1 2.81-.542 7.7 7.7 0 0 1 2.38.38 7.261 7.261 0 0 1 1.98 1.028A6.496 6.496 0 0 1 46.903 8.7c.402.624.7 1.31.883 2.03h-2.468a4.25 4.25 0 0 0-1.579-2.11 4.684 4.684 0 0 0-2.702-.786 4.762 4.762 0 0 0-1.9.38 4.39 4.39 0 0 0-1.47 1.028 4.883 4.883 0 0 0-.937 1.57 5.483 5.483 0 0 0 0 3.843c.205.573.524 1.098.936 1.543.407.457.91.818 1.472 1.055a4.762 4.762 0 0 0 1.9.379 4.508 4.508 0 0 0 2.701-.812 4.07 4.07 0 0 0 1.579-2.084h2.47a6.868 6.868 0 0 1-.883 2.03 5.943 5.943 0 0 1-1.505 1.57 6.654 6.654 0 0 1-1.982 1.077 7.7 7.7 0 0 1-2.38.38 6.864 6.864 0 0 1-2.81-.578Zm14.83 0a6.54 6.54 0 0 1-2.216-1.483 6.629 6.629 0 0 1-1.45-2.252 7.107 7.107 0 0 1-.535-2.733c0-.947.181-1.885.535-2.76a6.89 6.89 0 0 1 1.445-2.22 7.212 7.212 0 0 1 2.22-1.523 7.49 7.49 0 0 1 5.592 0 7.211 7.211 0 0 1 2.22 1.523 6.961 6.961 0 0 1 1.472 2.22c.343.878.514 1.815.502 2.76a7.093 7.093 0 0 1-.502 2.733 6.784 6.784 0 0 1-1.47 2.246 6.691 6.691 0 0 1-2.218 1.49 7.165 7.165 0 0 1-5.592 0h-.003Zm4.708-1.975a4.106 4.106 0 0 0 1.472-1.056 4.94 4.94 0 0 0 .936-1.543 5.38 5.38 0 0 0 .321-1.894 5.522 5.522 0 0 0-.32-1.895 5.412 5.412 0 0 0-.937-1.57 4.39 4.39 0 0 0-1.472-1.028 4.951 4.951 0 0 0-3.795-.005 4.39 4.39 0 0 0-1.472 1.028 5.297 5.297 0 0 0-1.284 3.465 4.868 4.868 0 0 0 .348 1.894c.205.574.523 1.099.936 1.543a4.1 4.1 0 0 0 1.472 1.055 4.952 4.952 0 0 0 3.799 0l-.004.006Zm5.874 2.435c-.18 0-.359-.018-.535-.054v-2.084c.14.032.284.05.428.054h.428a1.434 1.434 0 0 0 1.204-.568c.294-.352.428-1.056.428-2.084V5.975H75.92v13.532h-2.3V8.12h-5.726v7.307c0 1.435-.348 2.517-1.017 3.214a3.456 3.456 0 0 1-2.568 1.055 5.151 5.151 0 0 1-.669-.02Zm24.39-.351a5.609 5.609 0 0 1-2.007-1.3 6.072 6.072 0 0 1-1.418-1.948 7.196 7.196 0 0 1-.723-2.414h-2.568v5.846h-2.3V5.976h2.3v5.603h2.589c.123-.82.376-1.616.749-2.355.368-.69.85-1.31 1.424-1.835a6.315 6.315 0 0 1 2.007-1.245 6.494 6.494 0 0 1 2.434-.432 6.804 6.804 0 0 1 2.704.542 6.66 6.66 0 0 1 2.14 1.488 7.702 7.702 0 0 1 1.392 2.247c.324.883.487 1.818.481 2.76a7.622 7.622 0 0 1-.481 2.734 7.051 7.051 0 0 1-1.391 2.24 6.324 6.324 0 0 1-2.14 1.522 6.804 6.804 0 0 1-2.705.541 6.891 6.891 0 0 1-2.488-.461Zm4.255-2.11a4.351 4.351 0 0 0 1.39-1.028c.387-.454.687-.977.884-1.543a5.412 5.412 0 0 0 .321-1.895 5.675 5.675 0 0 0-.321-1.921 4.966 4.966 0 0 0-.885-1.523 4.35 4.35 0 0 0-1.39-1.028 4.457 4.457 0 0 0-3.532-.027 3.98 3.98 0 0 0-1.365 1.028 4.828 4.828 0 0 0-.883 1.543 5.676 5.676 0 0 0-.32 1.922 5.41 5.41 0 0 0 .32 1.894c.197.566.496 1.089.883 1.543.376.441.841.794 1.365 1.035a4.305 4.305 0 0 0 3.533 0Zm5.263-9.095V5.98h11.999v2.14h-4.943v11.394h-2.306V8.12h-4.75Zm35.996 3.344v2.33h-23.209v-2.33h23.209Zm5.835-7.939v15.99h-2.408V1.144h14.762v18.37h-2.435V3.526h-9.919Zm18.848 15.691a6.547 6.547 0 0 1-2.216-1.483 6.633 6.633 0 0 1-1.45-2.252 7.131 7.131 0 0 1-.535-2.733 7.35 7.35 0 0 1 .535-2.76 6.908 6.908 0 0 1 1.445-2.22 7.215 7.215 0 0 1 2.221-1.523 7.489 7.489 0 0 1 5.591 0 7.215 7.215 0 0 1 2.221 1.523 6.953 6.953 0 0 1 1.471 2.22 7.31 7.31 0 0 1 .502 2.76 7.098 7.098 0 0 1-.502 2.733 6.781 6.781 0 0 1-1.469 2.246 6.682 6.682 0 0 1-2.218 1.49 7.164 7.164 0 0 1-5.591 0h-.005Zm4.708-1.975a4.106 4.106 0 0 0 1.472-1.056c.403-.451.721-.974.936-1.543a5.41 5.41 0 0 0 .321-1.894 5.505 5.505 0 0 0-.321-1.895 5.409 5.409 0 0 0-.936-1.57 4.397 4.397 0 0 0-1.472-1.028 4.951 4.951 0 0 0-3.799 0 4.383 4.383 0 0 0-1.471 1.028 5.293 5.293 0 0 0-1.284 3.465 4.87 4.87 0 0 0 .347 1.894 4.49 4.49 0 0 0 .937 1.543c.407.458.91.818 1.471 1.056a4.952 4.952 0 0 0 3.799 0Zm15.352-.917 5.299-10.343h2.784v13.533h-2.304V9.691l-4.97 9.659h-1.625l-4.963-9.642v9.811h-2.301V5.987h2.779l5.301 10.337Zm14.47 2.892a6.552 6.552 0 0 1-2.215-1.483 6.633 6.633 0 0 1-1.45-2.252 7.094 7.094 0 0 1-.535-2.733 7.35 7.35 0 0 1 .535-2.76 6.892 6.892 0 0 1 1.445-2.22 7.21 7.21 0 0 1 2.22-1.523 7.492 7.492 0 0 1 5.592 0 7.215 7.215 0 0 1 2.221 1.523 6.97 6.97 0 0 1 1.471 2.22c.343.878.514 1.815.502 2.76a7.098 7.098 0 0 1-.502 2.733 6.787 6.787 0 0 1-1.471 2.247 6.705 6.705 0 0 1-2.221 1.488 7.164 7.164 0 0 1-5.592 0Zm4.709-1.975a4.115 4.115 0 0 0 1.472-1.056c.403-.451.721-.974.936-1.543a5.41 5.41 0 0 0 .321-1.894 5.529 5.529 0 0 0-.321-1.895 5.409 5.409 0 0 0-.936-1.57 4.397 4.397 0 0 0-1.472-1.028 4.951 4.951 0 0 0-3.799 0 4.383 4.383 0 0 0-1.471 1.028 5.299 5.299 0 0 0-1.285 3.465 4.872 4.872 0 0 0 .348 1.894c.205.574.524 1.099.937 1.543.407.458.909.818 1.471 1.056a4.952 4.952 0 0 0 3.799 0Zm24.818 5.683v-3.41h-17.611V5.981h2.294v11.403h5.324V5.981h2.301v11.403h5.324V5.981h2.301v11.403h2.227v5.549l-2.16-.009Zm6.379-16.943v4.872h4.441a6.05 6.05 0 0 1 2.22.38c.57.213 1.089.545 1.525.973.391.39.692.86.883 1.38.18.504.27 1.035.268 1.57a4.49 4.49 0 0 1-.268 1.57 3.884 3.884 0 0 1-.883 1.408 4.54 4.54 0 0 1-1.551 1.001 6.058 6.058 0 0 1-2.221.38h-6.715V5.98h2.301Zm4.334 11.422c.856 0 1.525-.19 2.006-.595a2.097 2.097 0 0 0 .696-1.651c0-.704-.241-1.245-.696-1.624-.454-.38-1.123-.569-1.979-.569h-4.361v4.439h4.334Z"/>
</svg>
