<svg xmlns="http://www.w3.org/2000/svg" fill="none" viewBox="0 0 500 70">
  <path fill="currentColor" d="M22.019 2.408 39.464 41.04H34l-5.27-11.782H10.726L5.455 41.04H0L17.441 2.408h4.578Zm4.566 22.055L19.732 9.167l-6.864 15.296h13.717ZM48.047 40.41a12.766 12.766 0 0 1-4.61-3.3 14.05 14.05 0 0 1-2.922-5.066 20.216 20.216 0 0 1-1.012-6.546v-2.902c0-4.358.116-6.976.678-9.605.496-2.33 1.093-4.187 2.386-6.008a12.637 12.637 0 0 1 4.594-3.97C51.377.743 57.841.402 61.276.167L65.453 0v4.703h-.633c-4.145 0-14.753.377-17.87 4.211a8.241 8.241 0 0 0-1.784 3.401 24.685 24.685 0 0 0-.773 5.215 10.883 10.883 0 0 1 4.721-3.813 14.595 14.595 0 0 1 5.621-1.139 14.97 14.97 0 0 1 5.902 1.139 12.256 12.256 0 0 1 4.384 3.073 14.76 14.76 0 0 1 2.81 4.497c.63 1.731.954 3.561.956 5.407a15.428 15.428 0 0 1-1.054 5.805 14.157 14.157 0 0 1-3.035 4.724 13.414 13.414 0 0 1-4.665 3.202 15.587 15.587 0 0 1-11.972 0l-.014-.015Zm9.948-4.154a9.077 9.077 0 0 0 3.091-2.106 10.16 10.16 0 0 0 2.024-3.301c.516-1.322.769-2.734.745-4.155a9.964 9.964 0 0 0-.731-3.913 9.564 9.564 0 0 0-1.967-3.074 9.68 9.68 0 0 0-3.092-1.992 10.689 10.689 0 0 0-3.864-.683 9.99 9.99 0 0 0-3.99.74 9.827 9.827 0 0 0-3.092 2.049 8.707 8.707 0 0 0-1.967 3.073 9.598 9.598 0 0 0-.73 3.814c-.034 1.42.21 2.833.716 4.158a8.848 8.848 0 0 0 1.938 3.27 8.71 8.71 0 0 0 3.12 2.137 9.65 9.65 0 0 0 3.865.797 9.924 9.924 0 0 0 3.948-.815h-.014Zm22.316 4.154a13.19 13.19 0 0 1-4.609-3.201 14.496 14.496 0 0 1-3.035-4.667 15.259 15.259 0 0 1 3.035-16.221 14.89 14.89 0 0 1 4.61-3.202 15.375 15.375 0 0 1 5.9-1.138c1.699 0 3.386.27 5.003.797 1.487.5 2.89 1.23 4.16 2.162a13.659 13.659 0 0 1 3.16 3.359 14.465 14.465 0 0 1 1.856 4.268h-5.185a8.936 8.936 0 0 0-3.317-4.44 9.833 9.833 0 0 0-5.676-1.65 9.998 9.998 0 0 0-3.991.797 9.225 9.225 0 0 0-3.091 2.163 10.267 10.267 0 0 0-1.968 3.301 11.539 11.539 0 0 0 0 8.082 9.438 9.438 0 0 0 1.968 3.244 8.628 8.628 0 0 0 3.091 2.22 9.998 9.998 0 0 0 3.99.797 9.463 9.463 0 0 0 5.677-1.708 8.558 8.558 0 0 0 3.317-4.382h5.188a14.437 14.437 0 0 1-1.855 4.269 12.493 12.493 0 0 1-3.161 3.3 13.974 13.974 0 0 1-4.163 2.267 16.161 16.161 0 0 1-5.002.796c-2.03.017-4.04-.396-5.902-1.213Zm31.155 0a13.729 13.729 0 0 1-4.654-3.119 13.948 13.948 0 0 1-3.047-4.735 14.976 14.976 0 0 1-1.124-5.749 15.47 15.47 0 0 1 1.124-5.805 14.49 14.49 0 0 1 3.036-4.667 15.14 15.14 0 0 1 4.665-3.202 15.722 15.722 0 0 1 11.747 0 15.153 15.153 0 0 1 4.665 3.202 14.652 14.652 0 0 1 3.091 4.667 15.435 15.435 0 0 1 1.054 5.805 14.926 14.926 0 0 1-1.054 5.749 14.267 14.267 0 0 1-3.088 4.723 14.059 14.059 0 0 1-4.661 3.131 15.041 15.041 0 0 1-11.747 0h-.007Zm9.892-4.154a8.626 8.626 0 0 0 3.091-2.22c.848-.95 1.515-2.05 1.967-3.245a11.38 11.38 0 0 0 .675-3.984 11.621 11.621 0 0 0-.675-3.984 11.376 11.376 0 0 0-1.967-3.3 9.221 9.221 0 0 0-3.091-2.164 10.392 10.392 0 0 0-7.974-.01 9.225 9.225 0 0 0-3.092 2.163 11.151 11.151 0 0 0-2.698 7.285 10.26 10.26 0 0 0 .731 3.984 9.441 9.441 0 0 0 1.967 3.244 8.63 8.63 0 0 0 3.092 2.22 10.392 10.392 0 0 0 7.981 0l-.007.01Zm12.34 5.122c-.378 0-.754-.039-1.124-.114v-4.383c.295.066.597.105.899.114h.899c.486.02.968-.078 1.408-.286.44-.208.825-.52 1.122-.909.618-.74.899-2.22.899-4.382V12.564h21.695v28.458h-4.833V17.075h-12.028v15.367c0 3.017-.731 5.293-2.136 6.759a7.33 7.33 0 0 1-2.471 1.675 7.257 7.257 0 0 1-2.925.545c-.469.015-.938 0-1.405-.043Zm51.237-.74a11.786 11.786 0 0 1-4.215-2.732 12.776 12.776 0 0 1-2.979-4.098 15.15 15.15 0 0 1-1.517-5.076h-5.396v12.294h-4.834V12.568h4.834v11.781h5.438c.259-1.725.79-3.397 1.574-4.951a14.438 14.438 0 0 1 2.992-3.86 13.273 13.273 0 0 1 4.216-2.618 13.63 13.63 0 0 1 5.115-.907 14.28 14.28 0 0 1 5.68 1.138 13.94 13.94 0 0 1 4.496 3.13 16.204 16.204 0 0 1 2.923 4.725 16.575 16.575 0 0 1 1.012 5.805 16.032 16.032 0 0 1-1.012 5.748 14.809 14.809 0 0 1-2.923 4.71 13.28 13.28 0 0 1-4.496 3.202 14.28 14.28 0 0 1-5.68 1.138 14.471 14.471 0 0 1-5.228-.971Zm8.941-4.436a9.147 9.147 0 0 0 2.919-2.163 10.084 10.084 0 0 0 1.858-3.244c.46-1.276.689-2.626.675-3.984a11.95 11.95 0 0 0-.675-4.041 10.44 10.44 0 0 0-1.858-3.202 9.148 9.148 0 0 0-2.919-2.162 9.358 9.358 0 0 0-7.423-.057 8.332 8.332 0 0 0-2.866 2.163 10.134 10.134 0 0 0-1.855 3.244 11.949 11.949 0 0 0-.675 4.04 11.381 11.381 0 0 0 .675 3.985 10.134 10.134 0 0 0 1.855 3.244 8.341 8.341 0 0 0 2.866 2.177 9.035 9.035 0 0 0 7.423 0Zm11.057-19.127v-4.496h25.208v4.496h-10.384v23.961h-4.844V17.075h-9.98Zm75.621 7.033v4.898h-48.759v-4.898h48.759Zm12.259-16.695v33.623h-5.058V2.408h31.011V41.04h-5.114V7.413h-20.839Zm39.596 32.997a13.729 13.729 0 0 1-4.654-3.119 13.946 13.946 0 0 1-3.046-4.735 14.939 14.939 0 0 1-1.124-5.749 15.47 15.47 0 0 1 1.124-5.805 14.504 14.504 0 0 1 3.035-4.667 15.153 15.153 0 0 1 4.665-3.202 15.722 15.722 0 0 1 11.747 0 15.153 15.153 0 0 1 4.665 3.202 14.619 14.619 0 0 1 3.091 4.667 15.416 15.416 0 0 1 1.054 5.805 14.907 14.907 0 0 1-1.054 5.749 14.264 14.264 0 0 1-3.086 4.722 14.07 14.07 0 0 1-4.659 3.132 15.045 15.045 0 0 1-11.747 0h-.011Zm9.892-4.154a8.626 8.626 0 0 0 3.091-2.22c.848-.95 1.515-2.05 1.968-3.245.46-1.275.688-2.625.674-3.984a11.62 11.62 0 0 0-.674-3.984 11.379 11.379 0 0 0-1.968-3.3 9.211 9.211 0 0 0-3.091-2.164 10.392 10.392 0 0 0-7.981 0 9.221 9.221 0 0 0-3.091 2.163 11.14 11.14 0 0 0-2.698 7.285 10.26 10.26 0 0 0 .73 3.985 9.442 9.442 0 0 0 1.968 3.244 8.626 8.626 0 0 0 3.091 2.22 10.392 10.392 0 0 0 7.981 0Zm32.251-1.928 11.133-21.75h5.849v28.458h-4.841V20.38l-10.44 20.312h-3.415l-10.426-20.276v20.632h-4.834V12.59h5.839l11.135 21.739Zm30.401 6.082a13.729 13.729 0 0 1-4.654-3.119 13.933 13.933 0 0 1-3.047-4.735 14.976 14.976 0 0 1-1.124-5.749 15.47 15.47 0 0 1 1.124-5.805 14.504 14.504 0 0 1 3.035-4.667 15.157 15.157 0 0 1 4.666-3.202 15.722 15.722 0 0 1 11.747 0 15.153 15.153 0 0 1 4.665 3.202 14.652 14.652 0 0 1 3.091 4.667 15.435 15.435 0 0 1 1.054 5.805 14.945 14.945 0 0 1-1.054 5.749 14.274 14.274 0 0 1-3.091 4.724 14.07 14.07 0 0 1-4.665 3.13 15.045 15.045 0 0 1-11.747 0Zm9.892-4.154a8.626 8.626 0 0 0 3.091-2.22c.848-.95 1.515-2.05 1.967-3.245a11.38 11.38 0 0 0 .675-3.984 11.621 11.621 0 0 0-.675-3.984 11.376 11.376 0 0 0-1.967-3.3 9.221 9.221 0 0 0-3.091-2.164 10.394 10.394 0 0 0-7.982 0 9.221 9.221 0 0 0-3.091 2.163 11.146 11.146 0 0 0-2.698 7.285c-.023 1.365.225 2.72.731 3.985a9.44 9.44 0 0 0 1.967 3.244 8.626 8.626 0 0 0 3.091 2.22 10.394 10.394 0 0 0 7.982 0Zm52.138 11.952v-7.172h-36.997V12.578h4.819v23.98h11.185v-23.98h4.834v23.98h11.185v-23.98h4.834v23.98h4.679v11.668l-4.539-.018Zm13.401-35.629v10.244h9.33a12.71 12.71 0 0 1 4.665.797 9.182 9.182 0 0 1 3.204 2.05 8 8 0 0 1 1.855 2.902 9.736 9.736 0 0 1 .562 3.301 9.49 9.49 0 0 1-.562 3.301 8.2 8.2 0 0 1-1.855 2.96 9.55 9.55 0 0 1-3.26 2.106 12.71 12.71 0 0 1-4.665.796H475.55V12.578h4.834Zm9.105 24.018c1.799 0 3.204-.398 4.216-1.252a4.432 4.432 0 0 0 1.461-3.472c0-1.48-.506-2.618-1.461-3.415-.956-.797-2.361-1.195-4.16-1.195h-9.161v9.334h9.105ZM2.972 66.02a4.34 4.34 0 0 1-1.6-1.166 4.535 4.535 0 0 1-1.016-1.826 7.314 7.314 0 0 1-.355-2.354v-.795c.032-1.66.032-2.42.312-3.538.139-.62.398-1.209.765-1.731a5.752 5.752 0 0 1 2.168-1.752c1.628-.7 3.611-.78 4.855-.82L9.4 52v1.888c-1.393 0-4.863-.136-6.263 1.24-.31.322-.537.713-.661 1.139a6.114 6.114 0 0 0-.224 1.682 3.79 3.79 0 0 1 1.514-1.08 4.944 4.944 0 0 1 1.777-.332 5.106 5.106 0 0 1 2.03.371 4.73 4.73 0 0 1 1.535 1.051c.418.435.742.949.953 1.51a5.116 5.116 0 0 1-.043 3.847 4.935 4.935 0 0 1-1.094 1.625 4.758 4.758 0 0 1-1.653 1.1 5.22 5.22 0 0 1-2.073.414 5.552 5.552 0 0 1-2.225-.435Zm3.384-1.804c.357-.137.678-.351.939-.627.266-.29.481-.621.636-.981.147-.41.22-.84.217-1.275 0-.39-.073-.776-.217-1.139a2.642 2.642 0 0 0-.619-.921 3.063 3.063 0 0 0-.934-.61 3.514 3.514 0 0 0-2.428 0 2.845 2.845 0 0 0-.935.627c-.26.27-.47.583-.619.925a3.027 3.027 0 0 0-.22 1.118c-.002.434.072.866.22 1.275.14.364.35.697.619.981.259.277.578.492.935.627.381.144.786.216 1.194.214.411 0 .82-.073 1.205-.214h.007Zm5.324 2.098v-1.863c.112.018.225.025.338.02.105.015.211.021.317.018a1.107 1.107 0 0 0 .895-.371c.22-.256.32-.725.32-1.45v-6.222h8.083v9.809h-2.19v-7.907h-3.707V63a4.219 4.219 0 0 1-.238 1.51c-.14.388-.356.745-.636 1.051a2.579 2.579 0 0 1-.956.63 3.34 3.34 0 0 1-1.155.194 5.14 5.14 0 0 1-1.07-.07Zm15.413-.294a4.286 4.286 0 0 1-1.532-1.1 5.418 5.418 0 0 1-1.288-2.648 5.377 5.377 0 0 1 .293-2.922 5.49 5.49 0 0 1 .995-1.63 4.803 4.803 0 0 1 1.532-1.096 4.657 4.657 0 0 1 1.891-.392 4.165 4.165 0 0 1 1.93.452c.493.254.921.613 1.255 1.05v-1.288h2.19v9.809h-2.19v-1.317a3.506 3.506 0 0 1-1.255 1.05 3.93 3.93 0 0 1-1.93.474 4.396 4.396 0 0 1-1.89-.442Zm3.505-1.804a2.64 2.64 0 0 0 .935-.67c.264-.283.467-.617.597-.98a3.57 3.57 0 0 0 0-2.47 2.793 2.793 0 0 0-.589-.992 2.84 2.84 0 0 0-.943-.675 3.104 3.104 0 0 0-1.216-.235 2.938 2.938 0 0 0-1.194.235c-.352.16-.67.386-.935.665a3.199 3.199 0 0 0-.615 1.002 3.57 3.57 0 0 0 0 2.47c.136.364.345.698.615.98.254.293.575.522.935.67.373.176.782.263 1.194.256a2.83 2.83 0 0 0 1.216-.256Zm13.482-7.77v1.92h-4.34v7.889h-2.19v-9.81h6.53Zm4.458 9.595a5.202 5.202 0 0 1-2.77-2.729 5.013 5.013 0 0 1-.397-1.98 5.206 5.206 0 0 1 .398-2.003c.26-.609.64-1.16 1.116-1.626a4.927 4.927 0 0 1 1.653-1.079 5.335 5.335 0 0 1 2.047-.392c.703-.003 1.4.13 2.051.392a5.283 5.283 0 0 1 1.674 1.08 5.416 5.416 0 0 1 1.095 1.625 5.28 5.28 0 0 1 .398 2.004c0 .68-.136 1.352-.401 1.98a4.98 4.98 0 0 1-1.106 1.639 5.062 5.062 0 0 1-1.663 1.09 5.489 5.489 0 0 1-2.051.392 5.4 5.4 0 0 1-2.044-.393Zm3.263-1.846c.358-.15.678-.377.935-.666.269-.284.48-.617.618-.98.29-.787.29-1.649 0-2.435a3.238 3.238 0 0 0-.618-.999 2.872 2.872 0 0 0-.935-.648 3.242 3.242 0 0 0-2.428 0 2.75 2.75 0 0 0-.956.648 3.304 3.304 0 0 0-.619.999 3.525 3.525 0 0 0 0 2.434c.14.363.35.697.619.981.26.294.588.522.956.666.778.314 1.65.314 2.428 0Zm5.296-5.847v-1.902h8.3v1.92h-3.128v7.889h-2.19v-7.907h-2.982Zm14.887-1.902a5.474 5.474 0 0 1 1.574.213c.4.135.771.342 1.095.61a2.4 2.4 0 0 1 .654.9c.144.342.22.709.22 1.08.004.338-.068.673-.21.981a2.34 2.34 0 0 1-.607.805c.434.233.8.57 1.066.981.253.4.384.863.377 1.335a2.83 2.83 0 0 1-.199 1.079c-.131.354-.35.671-.636.921a3.106 3.106 0 0 1-1.116.648 4.576 4.576 0 0 1-1.65.256h-5.118v-9.81h4.55Zm.956 3.706a1.147 1.147 0 0 0 .398-.863 1.132 1.132 0 0 0-.398-.864 1.762 1.762 0 0 0-.875-.235H69.62v2.218h2.431a1.62 1.62 0 0 0 .889-.273v.017Zm.636 3.962a1.108 1.108 0 0 0 .398-.9 1.118 1.118 0 0 0-.398-.925 1.594 1.594 0 0 0-1.034-.312H69.62v2.453h2.907c.38.018.752-.1 1.049-.333v.017Zm7.571 1.927a5.18 5.18 0 0 1-2.765-2.729 5.011 5.011 0 0 1-.398-1.98 5.206 5.206 0 0 1 .398-2.003c.26-.608.637-1.16 1.112-1.626a4.96 4.96 0 0 1 1.653-1.079 5.341 5.341 0 0 1 2.051-.392c.703-.003 1.4.13 2.051.392a5.263 5.263 0 0 1 1.67 1.08 5.347 5.347 0 0 1 1.096 1.625c.263.636.399 1.317.398 2.004a5.015 5.015 0 0 1-.398 1.98 4.985 4.985 0 0 1-1.105 1.638 5.07 5.07 0 0 1-1.66 1.09 5.52 5.52 0 0 1-2.052.393 5.4 5.4 0 0 1-2.05-.393Zm3.263-1.846a2.54 2.54 0 0 0 .935-.666c.27-.284.48-.617.619-.98a3.456 3.456 0 0 0 0-2.435 3.235 3.235 0 0 0-.619-.999 2.844 2.844 0 0 0-.935-.648 3.242 3.242 0 0 0-2.427 0 2.785 2.785 0 0 0-.957.648 3.228 3.228 0 0 0-.615.999 3.457 3.457 0 0 0 0 2.434c.138.364.347.697.615.981.262.293.59.521.957.666.777.314 1.65.314 2.427 0Zm6.498-7.749h2.19v1.313a3.635 3.635 0 0 1 1.272-1.05 4.177 4.177 0 0 1 1.93-.453 4.809 4.809 0 0 1 1.913.393 4.91 4.91 0 0 1 1.51 1.096 5.95 5.95 0 0 1 1.017 1.63c.376.929.48 1.943.3 2.928a5.316 5.316 0 0 1-1.317 2.642c-.416.47-.932.845-1.51 1.1a4.542 4.542 0 0 1-1.913.413 3.956 3.956 0 0 1-1.93-.473 3.43 3.43 0 0 1-1.272-1.05V70h-2.19V56.446Zm6.21 7.788a2.64 2.64 0 0 0 .935-.67c.264-.283.467-.617.597-.98a3.57 3.57 0 0 0 0-2.47 2.795 2.795 0 0 0-.589-.992 2.843 2.843 0 0 0-.943-.676 3.242 3.242 0 0 0-2.428 0c-.354.16-.673.385-.938.666a3.268 3.268 0 0 0-.615 1.002 3.57 3.57 0 0 0 0 2.47c.137.363.346.697.615.98.255.293.576.522.938.67a3.004 3.004 0 0 0 2.428 0Zm6.533-7.788h2.19v6.516l5.075-6.516h1.952v9.809h-2.19v-6.551l-5.076 6.551h-1.951v-9.81Zm11.254 1.902v-1.902h8.303v1.92h-3.114v7.889h-2.204v-7.907h-2.985Zm12.7 7.693a4.99 4.99 0 0 1-1.614-1.05 4.763 4.763 0 0 1-1.066-1.609 5.296 5.296 0 0 1-.377-2.039 5.206 5.206 0 0 1 .377-2.021 4.542 4.542 0 0 1 1.031-1.624 4.624 4.624 0 0 1 1.617-1.063 5.425 5.425 0 0 1 2.09-.392 5.241 5.241 0 0 1 2.09.41 4.663 4.663 0 0 1 1.645 1.173c.454.506.789 1.104.982 1.752.234.741.322 1.52.26 2.294h-7.913c.012.364.101.722.26 1.051a2.738 2.738 0 0 0 1.553 1.402 3.447 3.447 0 0 0 2.705-.137c.448-.222.801-.595.995-1.051h2.289c-.14.456-.355.887-.636 1.275a4.352 4.352 0 0 1-1.066 1.051 5.458 5.458 0 0 1-1.422.7 5.582 5.582 0 0 1-1.752.257 5.403 5.403 0 0 1-2.048-.379Zm.199-7.437a2.588 2.588 0 0 0-1.016 1.727h5.513a2.822 2.822 0 0 0-1.013-1.752 2.703 2.703 0 0 0-1.675-.55 3.008 3.008 0 0 0-1.809.575Zm8.304 7.71v-1.863c.117.019.236.026.355.02.106.015.213.021.32.018a1.116 1.116 0 0 0 .896-.371c.216-.256.316-.725.316-1.45v-6.222h8.104v9.809h-2.193v-7.907h-3.739V63a4.24 4.24 0 0 1-.238 1.51 3.068 3.068 0 0 1-.637 1.051c-.265.28-.592.495-.956.63-.37.133-.761.198-1.155.194a5.169 5.169 0 0 1-1.073-.07Zm15.341-9.868v3.237h2.09a4.252 4.252 0 0 1 1.674.294c.432.188.824.454 1.155.785.284.303.5.66.637 1.05a3.4 3.4 0 0 1 0 2.299 2.97 2.97 0 0 1-.658 1.05c-.314.342-.702.61-1.134.786a3.894 3.894 0 0 1-1.674.315h-4.265v-9.816h2.175Zm1.912 7.907c.463.032.923-.1 1.294-.375.15-.124.268-.28.344-.458a1.19 1.19 0 0 0 .093-.562 1.24 1.24 0 0 0-.437-1.05 2.19 2.19 0 0 0-1.294-.351h-1.912v2.768l1.912.028Zm8.222-7.907v3.853h4.798v-3.853h2.19v9.809h-2.19v-4.022h-4.798v4.022h-2.19v-9.81h2.19Zm12.359 0v3.237h2.09a4.233 4.233 0 0 1 1.671.294 3.77 3.77 0 0 1 1.155.785c.284.303.5.66.636 1.05.132.366.199.751.199 1.14.001.394-.067.786-.199 1.159-.142.392-.366.75-.657 1.05-.315.342-.702.61-1.134.786a3.88 3.88 0 0 1-1.671.315h-4.265v-9.816h2.175Zm1.909 7.907c.463.032.922-.1 1.294-.375a1.21 1.21 0 0 0 .441-1.02 1.255 1.255 0 0 0-.441-1.05 2.19 2.19 0 0 0-1.294-.351h-1.909v2.768l1.909.028Zm7.486-7.907v9.809h-2.19v-9.81h2.19Zm3.192 0h2.189v6.516l5.076-6.516h1.948v9.809h-2.19v-6.551l-5.075 6.551h-1.948v-9.81Zm3.483-1.59a2.627 2.627 0 0 1-1.066-.649 3.247 3.247 0 0 1-.935-2.126h1.443c.045.451.253.871.587 1.184a1.676 1.676 0 0 0 1.233.512 1.72 1.72 0 0 0 1.255-.512c.326-.314.523-.736.554-1.184h1.451a3.243 3.243 0 0 1-.91 2.126 2.784 2.784 0 0 1-1.067.648 3.596 3.596 0 0 1-1.294.235 3.394 3.394 0 0 1-1.251-.252v.017Zm19.426 11.578h-.16a5.989 5.989 0 0 1-2.307-.414 4.847 4.847 0 0 1-1.68-1.084 4.761 4.761 0 0 1-1.089-1.662 5.432 5.432 0 0 1 0-3.886 4.794 4.794 0 0 1 1.091-1.66 4.877 4.877 0 0 1 1.678-1.086 5.992 5.992 0 0 1 2.307-.41h.16v-4.204h2.189v4.204h.174a6.12 6.12 0 0 1 2.307.41c.63.239 1.201.608 1.675 1.081a4.686 4.686 0 0 1 1.073 1.666 5.432 5.432 0 0 1 0 3.885 4.645 4.645 0 0 1-1.072 1.667 4.728 4.728 0 0 1-1.676 1.08 6.123 6.123 0 0 1-2.307.413h-.159v3.552h-2.19l-.014-3.552Zm-.16-8.237a3.758 3.758 0 0 0-1.355.235 3.11 3.11 0 0 0-.995.67 2.99 2.99 0 0 0-.636.998 3.527 3.527 0 0 0 0 2.434c.131.368.342.703.618.981.272.3.614.528.996.666.433.181.901.269 1.372.256h.16v-6.24h-.16Zm2.349 6.24h.174a3.31 3.31 0 0 0 1.355-.256 2.71 2.71 0 0 0 1.013-.666 2.97 2.97 0 0 0 .618-.98c.29-.787.29-1.649 0-2.435a2.974 2.974 0 0 0-.636-.999 3.461 3.461 0 0 0-1.017-.669 3.633 3.633 0 0 0-1.333-.235h-.159l-.015 6.24Zm10.66 1.604a5.215 5.215 0 0 1-2.765-2.729 5.015 5.015 0 0 1-.398-1.962 5.206 5.206 0 0 1 .398-2.004 5.06 5.06 0 0 1 1.116-1.625 4.919 4.919 0 0 1 1.649-1.08 5.372 5.372 0 0 1 2.051-.392 5.45 5.45 0 0 1 2.051.393c.623.25 1.19.617 1.671 1.079a5.082 5.082 0 0 1 1.493 3.63 5.01 5.01 0 0 1-.398 1.979 4.994 4.994 0 0 1-1.104 1.638c-.475.469-1.04.84-1.662 1.09a5.439 5.439 0 0 1-4.102-.017Zm3.267-1.846a2.61 2.61 0 0 0 .935-.666c.268-.285.478-.618.618-.98.29-.787.29-1.649 0-2.435a3.287 3.287 0 0 0-.618-.999 2.91 2.91 0 0 0-.935-.648 3.243 3.243 0 0 0-2.428 0 2.746 2.746 0 0 0-.956.648 3.232 3.232 0 0 0-.618.999 3.527 3.527 0 0 0 0 2.434c.139.364.349.697.618.981.261.294.588.522.956.666.778.314 1.65.314 2.428 0Zm8.723-7.749v3.853h4.795v-3.853h2.19v9.809h-2.19v-4.022h-4.795v4.022h-2.19v-9.81h2.19Zm10.116 7.731a1.25 1.25 0 0 0 .437-.451c.157-.274.264-.573.317-.883.07-.464.103-.933.099-1.402v-4.995h8.204v7.886H255v4.375h-1.991v-2.452h-7.421v2.452h-2.012v-4.393h.259c.195.004.388-.043.558-.136Zm3.004-1.611c-.015.246-.055.49-.117.729a5.854 5.854 0 0 1-.182.546 1.725 1.725 0 0 1-.238.473h4.397V58.36h-3.821v3.296c0 .343-.018.659-.039.911Z"/>
</svg>

