<svg xmlns="http://www.w3.org/2000/svg" fill="none" viewBox="0 0 17 16">
  <path fill="currentColor" d="M8.17 0c2.174 0 2.446.01 3.3.049 2.908.133 4.522 1.75 4.653 4.653.039.853.048 1.125.048 3.298s-.01 2.445-.049 3.299c-.131 2.908-1.75 4.52-4.652 4.653-.854.039-1.126.048-3.3.048-2.172 0-2.444-.01-3.298-.048-2.908-.133-4.52-1.748-4.653-4.653C.18 10.445.17 10.173.17 8s.01-2.445.05-3.299C.353 1.793 1.968.181 4.873.048 5.726.009 5.998 0 8.17 0Zm0 3.195a4.805 4.805 0 1 0 .001 9.61 4.805 4.805 0 0 0 0-9.61Zm4.996-1.312a1.123 1.123 0 1 0 0 2.247 1.123 1.123 0 0 0 0-2.247ZM8.17 11.119a3.119 3.119 0 1 1 0-6.237 3.119 3.119 0 0 1 0 6.237Z"/>
</svg>
