<svg xmlns="http://www.w3.org/2000/svg" fill="none" viewBox="0 0 21 12">
  <path fill="currentColor" fill-rule="evenodd" d="M19.712.784c.139-.452 0-.784-.662-.784h-2.188c-.556 0-.813.287-.952.603 0 0-1.112 2.644-2.689 4.361-.51.498-.741.656-1.02.656-.139 0-.34-.158-.34-.61V.784c0-.542-.161-.784-.625-.784H7.798C7.45 0 7.24.252 7.24.49c0 .514.788.633.87 2.08v3.14c0 .689-.128.814-.406.814-.742 0-2.547-2.656-3.617-5.695C3.878.24 3.668 0 3.11 0H.921c-.625 0-.75.287-.75.603 0 .565.742 3.367 3.454 7.073 1.808 2.531 4.355 3.903 6.673 3.903 1.391 0 1.563-.305 1.563-.83V8.837c0-.61.132-.731.572-.731.325 0 .881.158 2.18 1.378 1.483 1.446 1.727 2.095 2.562 2.095h2.188c.625 0 .938-.305.757-.906-.197-.6-.905-1.469-1.845-2.5-.51-.587-1.275-1.22-1.507-1.536-.325-.407-.232-.588 0-.95 0 0 2.666-3.66 2.944-4.903Z" clip-rule="evenodd"/>
</svg>
