<svg xmlns="http://www.w3.org/2000/svg" fill="none" viewBox="0 0 35 35">
  <path fill="currentColor" d="M17.09 14h1.565v21H17.09V14Z"/>
  <path fill="currentColor" fill-rule="evenodd" d="M17.891 1.556c-2.591 0-4.692 2.089-4.692 4.666 0 2.578 2.1 4.667 4.692 4.667 2.591 0 4.692-2.09 4.692-4.667s-2.1-4.666-4.692-4.666Zm0-1.556c-3.455 0-6.256 2.786-6.256 6.222 0 3.437 2.801 6.222 6.256 6.222s6.256-2.785 6.256-6.222C24.147 2.786 21.346 0 17.89 0Zm5.652 12.851 11.457 21-1.375.742-11.457-21 1.375-.742Zm-12.086 0L0 33.851l1.375.742 11.457-21-1.375-.742Z" clip-rule="evenodd"/>
</svg>
