<?xml version="1.0" standalone="no"?>
<!DOCTYPE svg PUBLIC "-//W3C//DTD SVG 20010904//EN"
 "http://www.w3.org/TR/2001/REC-SVG-20010904/DTD/svg10.dtd">
<svg version="1.0" xmlns="http://www.w3.org/2000/svg"
 width="207.000000pt" height="207.000000pt" viewBox="0 0 207.000000 207.000000"
 preserveAspectRatio="xMidYMid meet">
<metadata>
Created by potrace 1.14, written by Peter Selinger 2001-2017
</metadata>
<g transform="translate(0.000000,207.000000) scale(0.100000,-0.100000)"
fill="#000000" stroke="none">
<path d="M912 1654 c-143 -37 -269 -151 -323 -292 -31 -83 -35 -221 -7 -305
95 -282 404 -411 666 -278 244 124 330 441 181 672 -108 169 -323 253 -517
203z m180 -128 c160 -24 287 -187 273 -350 -17 -189 -169 -321 -358 -310 -113
6 -234 90 -280 194 -28 65 -34 174 -12 243 20 65 87 145 150 183 41 23 158 55
180 48 6 -2 27 -5 47 -8z"/>
<path d="M0 488 c0 -58 3 -68 18 -68 24 -1 2002 -1 2029 0 22 0 23 4 20 67
l-2 68 -1032 0 -1033 0 0 -67z"/>
</g>
</svg>
